{
  "accessors": [
    {
      "bufferView": 1,
      "componentType": 5126,
      "count": 34485,
      "max": [
        2.5648467540740967,
        2.0023262500762939,
        5.5289115905761719
      ],
      "min": [
        -2.5969524383544922,
        -2.0667645931243896,
        0.84152412414550781
      ],
      "type": "VEC3"
    },
    {
      "bufferView": 1,
      "byteOffset": 413820,
      "componentType": 5126,
      "count": 34485,
      "max": [
        0.99999052286148071,
        0.99995392560958862,
        0.99965649843215942
      ],
      "min": [
        -0.99999135732650757,
        -0.99999153614044189,
        -0.99997979402542114
      ],
      "type": "VEC3"
    },
    {
      "bufferView": 0,
      "componentType": 5125,
      "count": 199146,
      "max": [
        34484
      ],
      "min": [
        0
      ],
      "type": "SCALAR"
    }
  ],
  "asset": {
    "extras": {
      "author": "nessafrye (https://sketchfab.com/nessafrye)",
      "license": "CC-BY-4.0 (http://creativecommons.org/licenses/by/4.0/)",
      "source": "https://sketchfab.com/3d-models/spooky-ghost-072da1663fc74b508d04b66932aee8a9",
      "title": "Spooky Ghost"
    },
    "generator": "Sketchfab-6.71.0",
    "version": "2.0"
  },
  "bufferViews": [
    {
      "buffer": 0,
      "byteLength": 796584,
      "byteOffset": 0,
      "name": "floatBufferViews",
      "target": 34963
    },
    {
      "buffer": 0,
      "byteLength": 827640,
      "byteOffset": 796584,
      "byteStride": 12,
      "name": "floatBufferViews",
      "target": 34962
    }
  ],
  "buffers": [
    {
      "byteLength": 1624224,
      "uri": "scene.bin"
    }
  ],
  "materials": [
    {
      "doubleSided": true,
      "name": "Scene_-_Root",
      "pbrMetallicRoughness": {
        "baseColorFactor": [
          0.75796976250904491,
          0.75796976250904491,
          0.75796976250904491,
          1
        ],
        "metallicFactor": 0,
        "roughnessFactor": 0.4921875
      }
    }
  ],
  "meshes": [
    {
      "primitives": [
        {
          "attributes": {
            "NORMAL": 1,
            "POSITION": 0
          },
          "indices": 2,
          "material": 0,
          "mode": 4
        }
      ]
    }
  ],
  "nodes": [
    {
      "children": [
        1
      ],
      "name": "RootNode (gltf orientation matrix)",
      "rotation": [
        -0.70710678118654746,
        -0,
        -0,
        0.70710678118654757
      ]
    },
    {
      "children": [
        2
      ],
      "name": "RootNode (model correction matrix)"
    },
    {
      "children": [
        3
      ],
      "name": "GOODghost.stl.cleaner.materialmerger.gles"
    },
    {
      "mesh": 0,
      "name": ""
    }
  ],
  "scene": 0,
  "scenes": [
    {
      "name": "OSG_Scene",
      "nodes": [
        0
      ]
    }
  ]
}

